<?xml version="1.0" encoding="utf-8"?>
<!-- Generator: Adobe Illustrator 16.0.0, SVG Export Plug-In . SVG Version: 6.00 Build 0)  -->
<!DOCTYPE svg PUBLIC "-//W3C//DTD SVG 1.1//EN" "http://www.w3.org/Graphics/SVG/1.1/DTD/svg11.dtd">
<svg version="1.1" id="Layer_1" xmlns="http://www.w3.org/2000/svg" xmlns:xlink="http://www.w3.org/1999/xlink" x="0px" y="0px"
	 width="100px" height="100px" viewBox="0 0 100 100" enable-background="new 0 0 100 100" xml:space="preserve">
<linearGradient id="SVGID_1_" gradientUnits="userSpaceOnUse" x1="80.6367" y1="86.3301" x2="17.6826" y2="48.7606">
	<stop  offset="0" style="stop-color:#E9CD53"/>
	<stop  offset="1" style="stop-color:#E6A923"/>
</linearGradient>
<path fill="url(#SVGID_1_)" d="M94.096,59.961c-1.481,1.033-21.803,15.424-34.428,24.189c-6.897,4.789-13.665,4.076-19.862-0.236
	c-6.152-4.281-25.034-17.619-25.034-17.619l3.331-12.43l-0.886-0.609c-2.761-1.926-9.337-4.655-11.983,1.32
	c-0.376,1.344-1.228,4.361-2.33,8.477c-1.581,5.9,1.183,10.639,3.248,12.047c5.887,4.121,18.138,12.625,28.141,19.705
	c9.536,6.748,21.257,7.102,31.372,0.006c11.399-7.994,23.922-16.686,25.415-17.787c2.094-1.543,6.3-5.885,6.474-11.934
	C97.734,58.684,95.928,58.686,94.096,59.961z"/>
<linearGradient id="SVGID_2_" gradientUnits="userSpaceOnUse" x1="24.9854" y1="58.9922" x2="70.4661" y2="45.3737">
	<stop  offset="0" style="stop-color:#E9CD53"/>
	<stop  offset="1" style="stop-color:#E6A923"/>
</linearGradient>
<path fill="url(#SVGID_2_)" d="M17.216,53.256c0,0,17.511,12.133,21.77,15.15c0.107,0.076,0.212,0.15,0.312,0.221
	c7.692,5.453,14.059,5.125,21.195,0.078c3.287-2.324,10.699-7.467,15.827-11.067c3.134-2.2,5.441-6.513,5.441-10.102
	c0-5.34,0-9.245,0-12.677c-1.749-6.51-10.696,0.4-10.696,0.4l-1.087,0.753l0.009,11.202c0,0-10.764,7.579-14.864,10.411
	c-2.752,1.901-7.578,1.958-10.625-0.196c-2.894-2.047-7.043-4.951-11.421-8.007c-3.809-2.658-7.427-5.201-11.082-7.729
	c-4.886-3.379-12.811-0.832-14.51,4.818c-0.521,1.732-1.876,6.719-2.251,8.066C7.879,48.601,14.455,51.33,17.216,53.256z"/>
<linearGradient id="SVGID_3_" gradientUnits="userSpaceOnUse" x1="80.3008" y1="22.6558" x2="-11.42" y2="26.0781">
	<stop  offset="0" style="stop-color:#E9CD53"/>
	<stop  offset="1" style="stop-color:#E6A923"/>
</linearGradient>
<path fill="url(#SVGID_3_)" d="M81.762,34.859c0-5.311-0.681-8.565-4.28-11.15c-3.893-2.794-8.346-2.229-11.473-0.096
	c-4.067,2.774-16.089,11.356-16.089,11.356l-13.265-8.904c0,0,9.27-6.45,12.02-8.365c2.135-1.486,6.175-5.69,6.612-12.031
	c0.386-5.588-1.69-6.425-3.522-5.15c-6.88,4.79-25.853,17.934-31.037,21.732c-2.986,2.188-3.907,4.529-0.333,6.968
	c5.792,3.979,17.671,12.498,21.694,15.274c4.402,3.039,8.723,4.827,15.845-0.126c3.299-2.294,13.132-9.108,13.132-9.108
	S80.013,28.349,81.762,34.859z"/>
</svg>
