<?xml version="1.0" encoding="utf-8"?>
<!-- Generator: Adobe Illustrator 16.0.0, SVG Export Plug-In . SVG Version: 6.00 Build 0)  -->
<!DOCTYPE svg PUBLIC "-//W3C//DTD SVG 1.1//EN" "http://www.w3.org/Graphics/SVG/1.1/DTD/svg11.dtd">
<svg version="1.1" id="Layer_1" xmlns="http://www.w3.org/2000/svg" xmlns:xlink="http://www.w3.org/1999/xlink" x="0px" y="0px"
	 width="100px" height="100px" viewBox="0 0 100 100" enable-background="new 0 0 100 100" xml:space="preserve">
<g>
	<g>
		<linearGradient id="SVGID_1_" gradientUnits="userSpaceOnUse" x1="69.8359" y1="55.8945" x2="29.0769" y2="31.5706">
			<stop  offset="0" style="stop-color:#E9CD53"/>
			<stop  offset="1" style="stop-color:#E6A923"/>
		</linearGradient>
		<path fill="url(#SVGID_1_)" d="M78.55,38.822c-0.96,0.668-14.116,9.986-22.29,15.662c-4.466,3.101-8.849,2.638-12.86-0.153
			c-3.982-2.772-16.208-11.407-16.208-11.407l2.156-8.048l-0.573-0.394c-1.788-1.247-6.045-3.014-7.759,0.854
			c-0.243,0.871-0.795,2.825-1.508,5.488c-1.024,3.821,0.766,6.888,2.103,7.8c3.811,2.667,11.743,8.174,18.219,12.758
			c6.174,4.369,13.764,4.597,20.312,0.004c7.381-5.178,15.488-10.804,16.456-11.517c1.354-0.999,4.078-3.81,4.19-7.726
			C80.905,37.994,79.735,37.996,78.55,38.822z"/>
		<linearGradient id="SVGID_2_" gradientUnits="userSpaceOnUse" x1="33.8042" y1="38.1948" x2="63.2502" y2="29.3777">
			<stop  offset="0" style="stop-color:#E9CD53"/>
			<stop  offset="1" style="stop-color:#E6A923"/>
		</linearGradient>
		<path fill="url(#SVGID_2_)" d="M28.774,34.481c0,0,11.337,7.854,14.095,9.809c0.069,0.049,0.138,0.098,0.202,0.144
			c4.979,3.529,9.103,3.317,13.723,0.049c2.127-1.505,6.927-4.833,10.246-7.166c2.029-1.425,3.523-4.217,3.523-6.54
			c0-3.458,0-5.986,0-8.208c-1.132-4.215-6.925,0.259-6.925,0.259l-0.704,0.488l0.006,7.252c0,0-6.969,4.907-9.624,6.74
			c-1.781,1.23-4.906,1.268-6.879-0.127c-1.873-1.325-4.56-3.206-7.395-5.184c-2.467-1.721-4.809-3.368-7.175-5.004
			c-3.163-2.188-8.295-0.539-9.395,3.119c-0.337,1.122-1.215,4.35-1.458,5.223C22.729,31.467,26.986,33.234,28.774,34.481z"/>
		<linearGradient id="SVGID_3_" gradientUnits="userSpaceOnUse" x1="69.6182" y1="14.6694" x2="10.2347" y2="16.8852">
			<stop  offset="0" style="stop-color:#E9CD53"/>
			<stop  offset="1" style="stop-color:#E6A923"/>
		</linearGradient>
		<path fill="url(#SVGID_3_)" d="M70.563,22.57c0-3.438-0.439-5.545-2.771-7.219c-2.521-1.809-5.404-1.443-7.429-0.062
			c-2.633,1.795-10.417,7.352-10.417,7.352l-8.588-5.765c0,0,6.002-4.175,7.782-5.416c1.381-0.962,3.998-3.684,4.281-7.789
			c0.249-3.618-1.095-4.16-2.28-3.334c-4.455,3.101-16.739,11.611-20.095,14.07c-1.935,1.417-2.529,2.932-0.216,4.511
			c3.749,2.576,11.44,8.092,14.045,9.89c2.851,1.967,5.648,3.125,10.26-0.083c2.135-1.485,8.502-5.896,8.502-5.896
			S69.432,18.355,70.563,22.57z"/>
	</g>
	<g>
		<g>
			<g>
				<g>
					<path fill="#FFFFFF" d="M3.154,94.419c0.078,0,0.12,0.043,0.12,0.121v0.167c0,0.08-0.042,0.121-0.12,0.121H1.942v3.731
						c0,0.079-0.042,0.12-0.12,0.12H1.625c-0.078,0-0.12-0.041-0.12-0.12v-3.731H0.293c-0.078,0-0.12-0.041-0.12-0.121V94.54
						c0-0.078,0.042-0.121,0.12-0.121H3.154z"/>
					<path fill="#FFFFFF" d="M5.02,95.505c0.073,0,0.108,0.037,0.108,0.109v0.155c0,0.072-0.035,0.109-0.108,0.109H4.822
						c-0.3,0-0.563,0.041-0.792,0.125c-0.066,0.031-0.103,0.077-0.103,0.155v2.414c0,0.071-0.036,0.106-0.107,0.106H3.628
						c-0.071,0-0.107-0.035-0.107-0.106v-2.544c0-0.164,0.078-0.271,0.228-0.337c0.306-0.115,0.666-0.182,1.086-0.188H5.02z"/>
					<path fill="#FFFFFF" d="M7.12,95.505c0.798,0,1.2,0.397,1.2,1.189v1.571c0,0.169-0.072,0.282-0.216,0.342
						c-0.24,0.104-0.57,0.156-0.996,0.156c-0.498,0-0.84-0.078-1.038-0.239c-0.175-0.139-0.259-0.372-0.259-0.691
						c0-0.341,0.103-0.582,0.307-0.724c0.197-0.139,0.54-0.205,1.014-0.205c0.162,0,0.426,0.018,0.786,0.061v-0.276
						c0-0.547-0.27-0.823-0.81-0.823c-0.396,0-0.679,0.145-0.84,0.438c-0.043,0.06-0.097,0.079-0.15,0.048l-0.145-0.06
						c-0.078-0.029-0.096-0.078-0.06-0.156C6.136,95.716,6.538,95.505,7.12,95.505z M7.918,97.294
						c-0.36-0.035-0.636-0.055-0.828-0.055c-0.318,0-0.54,0.049-0.672,0.139c-0.126,0.089-0.192,0.239-0.192,0.449
						c0,0.204,0.055,0.354,0.162,0.444c0.126,0.103,0.36,0.157,0.69,0.157c0.306,0,0.546-0.031,0.726-0.098
						c0.078-0.029,0.114-0.089,0.114-0.173V97.294z"/>
					<path fill="#FFFFFF" d="M11.848,95.597c0.09,0,0.12,0.041,0.084,0.119l-1.2,2.88c-0.03,0.066-0.084,0.102-0.149,0.102h-0.114
						c-0.078,0-0.126-0.035-0.156-0.102l-1.2-2.874c-0.035-0.084-0.006-0.125,0.091-0.125H9.34c0.102,0,0.162,0.035,0.186,0.107
						l0.822,1.979c0.029,0.079,0.06,0.187,0.102,0.313c0.036,0.124,0.061,0.19,0.066,0.21h0.018l0.066-0.204
						c0.036-0.127,0.065-0.234,0.096-0.312l0.816-1.987c0.023-0.072,0.09-0.107,0.191-0.107H11.848z"/>
					<path fill="#FFFFFF" d="M12.724,96.772c0-0.403,0.113-0.709,0.335-0.931c0.229-0.222,0.559-0.337,0.99-0.337
						c0.438,0,0.769,0.115,1.002,0.349c0.223,0.222,0.33,0.516,0.33,0.896v0.329c0,0.114-0.06,0.167-0.18,0.167h-2.076v0.349
						c0,0.547,0.3,0.821,0.9,0.821c0.443,0,0.756-0.167,0.941-0.496c0.048-0.066,0.108-0.078,0.175-0.043l0.126,0.066
						c0.077,0.043,0.09,0.095,0.041,0.173c-0.239,0.433-0.665,0.648-1.283,0.648c-0.438,0-0.769-0.113-0.99-0.335
						c-0.21-0.21-0.312-0.498-0.312-0.876V96.772z M14.979,96.724c0-0.582-0.312-0.87-0.931-0.87c-0.3,0-0.527,0.078-0.689,0.233
						c-0.156,0.15-0.234,0.368-0.234,0.637v0.21h1.854V96.724z"/>
					<path fill="#FFFFFF" d="M16.845,98.573c0,0.071-0.036,0.106-0.108,0.106h-0.186c-0.072,0-0.108-0.035-0.108-0.106V94.35
						c0-0.074,0.036-0.109,0.108-0.109h0.186c0.072,0,0.108,0.035,0.108,0.109V98.573z"/>
					<path fill="#FFFFFF" d="M20.408,94.648c0.204-0.21,0.468-0.312,0.798-0.312c0.306,0,0.559,0.097,0.762,0.294
						c0.198,0.198,0.301,0.432,0.301,0.708c0,0.271-0.078,0.498-0.234,0.672c-0.144,0.157-0.384,0.308-0.72,0.457l-0.054,0.023
						l1.073,1.049l0.414-0.4c0.048-0.049,0.097-0.049,0.145,0l0.138,0.144c0.042,0.041,0.036,0.084-0.006,0.127l-0.426,0.412
						l0.756,0.752c0.072,0.071,0.054,0.106-0.048,0.106h-0.253c-0.071,0-0.126-0.023-0.167-0.066l-0.553-0.539
						c-0.504,0.462-0.978,0.689-1.415,0.689c-0.337,0-0.618-0.107-0.841-0.329c-0.228-0.222-0.342-0.504-0.342-0.841
						c0-0.516,0.306-0.917,0.912-1.211c-0.354-0.354-0.528-0.69-0.528-1.021C20.12,95.081,20.217,94.846,20.408,94.648z
						 M20.912,96.657c-0.51,0.233-0.762,0.547-0.762,0.942c0,0.222,0.078,0.409,0.228,0.559c0.15,0.149,0.337,0.222,0.559,0.222
						c0.33,0,0.708-0.198,1.134-0.588L20.912,96.657z M21.698,94.889c-0.138-0.133-0.3-0.199-0.492-0.199
						c-0.21,0-0.384,0.066-0.516,0.205c-0.126,0.132-0.187,0.288-0.187,0.475c0,0.233,0.162,0.516,0.492,0.845l0.15-0.078
						c0.258-0.112,0.438-0.21,0.533-0.3c0.139-0.126,0.211-0.288,0.211-0.498C21.891,95.165,21.824,95.015,21.698,94.889z"/>
					<path fill="#FFFFFF" d="M26.455,94.419c0.078,0,0.114,0.043,0.114,0.121v3.731h2.034c0.078,0,0.114,0.042,0.114,0.12v0.168
						c0,0.079-0.036,0.12-0.114,0.12h-2.346c-0.078,0-0.12-0.041-0.12-0.12v-4.02c0-0.078,0.042-0.121,0.12-0.121H26.455z"/>
					<path fill="#FFFFFF" d="M29.815,94.491c0.149,0,0.222,0.072,0.222,0.224v0.041c0,0.15-0.072,0.222-0.222,0.222h-0.036
						c-0.15,0-0.223-0.071-0.223-0.222v-0.041c0-0.151,0.072-0.224,0.223-0.224H29.815z M29.894,95.597
						c0.071,0,0.107,0.035,0.107,0.107v2.869c0,0.071-0.036,0.106-0.107,0.106h-0.192c-0.072,0-0.108-0.035-0.108-0.106v-2.869
						c0-0.072,0.036-0.107,0.108-0.107H29.894z"/>
					<path fill="#FFFFFF" d="M34.231,95.505c0.731,0,1.098,0.38,1.098,1.141v1.928c0,0.071-0.036,0.106-0.108,0.106h-0.186
						c-0.072,0-0.108-0.035-0.108-0.106v-1.91c0-0.521-0.246-0.784-0.744-0.784c-0.282,0-0.558,0.064-0.815,0.202
						c0.078,0.15,0.113,0.337,0.113,0.564v1.928c0,0.071-0.035,0.106-0.107,0.106h-0.187c-0.071,0-0.107-0.035-0.107-0.106v-1.91
						c0-0.521-0.252-0.784-0.762-0.784c-0.234,0-0.444,0.041-0.631,0.119c-0.065,0.031-0.096,0.083-0.096,0.161v2.414
						c0,0.071-0.036,0.106-0.107,0.106h-0.192c-0.072,0-0.107-0.035-0.107-0.106v-2.532c0-0.162,0.077-0.277,0.228-0.343
						c0.288-0.127,0.606-0.193,0.96-0.193c0.336,0,0.594,0.086,0.774,0.259C33.522,95.591,33.889,95.505,34.231,95.505z"/>
					<path fill="#FFFFFF" d="M36.402,96.61c0-0.342,0.12-0.612,0.354-0.812c0.234-0.196,0.553-0.294,0.96-0.294
						c0.414,0,0.738,0.098,0.973,0.294c0.234,0.199,0.354,0.47,0.354,0.812v1.056c0,0.343-0.119,0.613-0.354,0.804
						c-0.234,0.198-0.559,0.294-0.973,0.294c-0.407,0-0.726-0.096-0.96-0.294c-0.233-0.198-0.354-0.461-0.354-0.804V96.61z
						 M38.635,96.61c0-0.228-0.085-0.408-0.247-0.541c-0.161-0.132-0.39-0.198-0.672-0.198c-0.281,0-0.497,0.066-0.659,0.198
						c-0.169,0.133-0.252,0.313-0.252,0.541v1.056c0,0.228,0.083,0.408,0.252,0.535c0.162,0.13,0.384,0.196,0.659,0.196
						c0.282,0,0.511-0.066,0.672-0.196c0.162-0.127,0.247-0.308,0.247-0.535V96.61z"/>
					<path fill="#FFFFFF" d="M42.54,95.597c0.071,0,0.107,0.035,0.107,0.107v2.532c0,0.155-0.077,0.265-0.228,0.331
						c-0.318,0.13-0.696,0.196-1.122,0.196c-0.792,0-1.188-0.39-1.188-1.17v-1.89c0-0.072,0.036-0.107,0.108-0.107h0.186
						c0.073,0,0.108,0.035,0.108,0.107v1.872c0,0.545,0.282,0.821,0.84,0.821c0.3,0,0.558-0.041,0.78-0.132
						c0.072-0.029,0.108-0.09,0.108-0.168v-2.394c0-0.072,0.036-0.107,0.107-0.107H42.54z"/>
					<path fill="#FFFFFF" d="M44.004,95.747c0.209-0.162,0.504-0.242,0.888-0.242c0.624,0,1.031,0.217,1.224,0.654
						c0.042,0.072,0.024,0.127-0.054,0.158l-0.15,0.065c-0.065,0.029-0.113,0.012-0.149-0.055c-0.139-0.305-0.427-0.457-0.864-0.457
						c-0.522,0-0.786,0.175-0.786,0.523c0,0.216,0.084,0.366,0.258,0.444c0.108,0.052,0.324,0.089,0.648,0.118
						c0.384,0.037,0.66,0.109,0.828,0.211c0.228,0.138,0.342,0.359,0.342,0.679c0,0.288-0.103,0.51-0.307,0.666
						c-0.209,0.167-0.521,0.251-0.924,0.251c-0.672,0-1.104-0.245-1.296-0.744c-0.03-0.071-0.012-0.12,0.066-0.144l0.155-0.055
						c0.066-0.018,0.114,0,0.145,0.066c0.132,0.349,0.438,0.521,0.918,0.521c0.564,0,0.846-0.179,0.846-0.545
						c0-0.198-0.078-0.337-0.239-0.414c-0.114-0.061-0.324-0.107-0.631-0.139c-0.396-0.041-0.672-0.102-0.834-0.19
						c-0.252-0.139-0.377-0.372-0.377-0.715C43.71,96.124,43.806,95.908,44.004,95.747z"/>
					<path fill="#FFFFFF" d="M47.429,94.491c0.15,0,0.223,0.072,0.223,0.224v0.041c0,0.15-0.072,0.222-0.223,0.222h-0.035
						c-0.15,0-0.223-0.071-0.223-0.222v-0.041c0-0.151,0.072-0.224,0.223-0.224H47.429z M47.507,95.597
						c0.072,0,0.108,0.035,0.108,0.107v2.869c0,0.071-0.036,0.106-0.108,0.106h-0.192c-0.071,0-0.107-0.035-0.107-0.106v-2.869
						c0-0.072,0.036-0.107,0.107-0.107H47.507z"/>
					<path fill="#FFFFFF" d="M50.141,95.505c0.798,0,1.193,0.392,1.193,1.178v1.891c0,0.071-0.036,0.106-0.107,0.106H51.04
						c-0.071,0-0.107-0.035-0.107-0.106v-1.879c0-0.547-0.282-0.815-0.84-0.815c-0.282,0-0.552,0.041-0.798,0.131
						c-0.061,0.031-0.09,0.077-0.09,0.149v2.414c0,0.071-0.036,0.106-0.108,0.106h-0.191c-0.072,0-0.108-0.035-0.108-0.106v-2.532
						c0-0.156,0.078-0.266,0.228-0.331C49.354,95.571,49.727,95.505,50.141,95.505z"/>
					<path fill="#FFFFFF" d="M52.391,96.772c0-0.403,0.113-0.709,0.335-0.931c0.229-0.222,0.558-0.337,0.99-0.337
						c0.438,0,0.769,0.115,1.002,0.349c0.222,0.222,0.33,0.516,0.33,0.896v0.329c0,0.114-0.061,0.167-0.18,0.167h-2.076v0.349
						c0,0.547,0.3,0.821,0.9,0.821c0.443,0,0.756-0.167,0.942-0.496c0.047-0.066,0.107-0.078,0.173-0.043l0.126,0.066
						c0.078,0.043,0.09,0.095,0.042,0.173c-0.239,0.433-0.665,0.648-1.283,0.648c-0.438,0-0.768-0.113-0.99-0.335
						c-0.21-0.21-0.312-0.498-0.312-0.876V96.772z M54.646,96.724c0-0.582-0.312-0.87-0.931-0.87c-0.3,0-0.527,0.078-0.69,0.233
						c-0.155,0.15-0.233,0.368-0.233,0.637v0.21h1.854V96.724z"/>
					<path fill="#FFFFFF" d="M60.424,94.419c0.078,0,0.12,0.043,0.12,0.121v0.167c0,0.08-0.042,0.121-0.12,0.121h-1.213v3.731
						c0,0.079-0.042,0.12-0.119,0.12h-0.198c-0.078,0-0.12-0.041-0.12-0.12v-3.731h-1.212c-0.078,0-0.12-0.041-0.12-0.121V94.54
						c0-0.078,0.042-0.121,0.12-0.121H60.424z"/>
					<path fill="#FFFFFF" d="M62.289,95.505c0.072,0,0.108,0.037,0.108,0.109v0.155c0,0.072-0.036,0.109-0.108,0.109h-0.198
						c-0.3,0-0.563,0.041-0.792,0.125c-0.065,0.031-0.102,0.077-0.102,0.155v2.414c0,0.071-0.036,0.106-0.107,0.106h-0.193
						c-0.071,0-0.107-0.035-0.107-0.106v-2.544c0-0.164,0.078-0.271,0.229-0.337c0.306-0.115,0.666-0.182,1.086-0.188H62.289z"/>
					<path fill="#FFFFFF" d="M64.389,95.505c0.798,0,1.2,0.397,1.2,1.189v1.571c0,0.169-0.072,0.282-0.217,0.342
						c-0.239,0.104-0.569,0.156-0.995,0.156c-0.498,0-0.84-0.078-1.038-0.239c-0.174-0.139-0.258-0.372-0.258-0.691
						c0-0.341,0.102-0.582,0.306-0.724c0.198-0.139,0.541-0.205,1.015-0.205c0.161,0,0.425,0.018,0.785,0.061v-0.276
						c0-0.547-0.27-0.823-0.81-0.823c-0.396,0-0.679,0.145-0.84,0.438c-0.042,0.06-0.097,0.079-0.15,0.048l-0.144-0.06
						c-0.078-0.029-0.097-0.078-0.061-0.156C63.404,95.716,63.807,95.505,64.389,95.505z M65.187,97.294
						c-0.36-0.035-0.636-0.055-0.828-0.055c-0.317,0-0.539,0.049-0.672,0.139c-0.126,0.089-0.191,0.239-0.191,0.449
						c0,0.204,0.054,0.354,0.161,0.444c0.127,0.103,0.36,0.157,0.69,0.157c0.307,0,0.546-0.031,0.726-0.098
						c0.078-0.029,0.114-0.089,0.114-0.173V97.294z"/>
					<path fill="#FFFFFF" d="M68.061,95.505c0.798,0,1.194,0.392,1.194,1.178v1.891c0,0.071-0.036,0.106-0.108,0.106h-0.186
						c-0.072,0-0.108-0.035-0.108-0.106v-1.879c0-0.547-0.282-0.815-0.84-0.815c-0.282,0-0.552,0.041-0.798,0.131
						c-0.061,0.031-0.091,0.077-0.091,0.149v2.414c0,0.071-0.036,0.106-0.107,0.106h-0.192c-0.071,0-0.107-0.035-0.107-0.106v-2.532
						c0-0.156,0.077-0.266,0.228-0.331C67.274,95.571,67.646,95.505,68.061,95.505z"/>
					<path fill="#FFFFFF" d="M70.599,95.747c0.209-0.162,0.504-0.242,0.888-0.242c0.623,0,1.031,0.217,1.224,0.654
						c0.042,0.072,0.023,0.127-0.054,0.158l-0.15,0.065c-0.066,0.029-0.114,0.012-0.149-0.055c-0.139-0.305-0.427-0.457-0.864-0.457
						c-0.521,0-0.786,0.175-0.786,0.523c0,0.216,0.084,0.366,0.259,0.444c0.107,0.052,0.323,0.089,0.647,0.118
						c0.384,0.037,0.66,0.109,0.827,0.211c0.229,0.138,0.343,0.359,0.343,0.679c0,0.288-0.103,0.51-0.307,0.666
						c-0.21,0.167-0.521,0.251-0.924,0.251c-0.672,0-1.104-0.245-1.296-0.744c-0.03-0.071-0.012-0.12,0.066-0.144l0.155-0.055
						c0.066-0.018,0.114,0,0.145,0.066c0.132,0.349,0.438,0.521,0.918,0.521c0.563,0,0.847-0.179,0.847-0.545
						c0-0.198-0.078-0.337-0.241-0.414c-0.113-0.061-0.323-0.107-0.629-0.139c-0.396-0.041-0.673-0.102-0.834-0.19
						c-0.253-0.139-0.379-0.372-0.379-0.715C70.304,96.124,70.4,95.908,70.599,95.747z"/>
					<path fill="#FFFFFF" d="M75.08,95.505c0.834,0,1.248,0.403,1.248,1.201v0.864c0,0.798-0.408,1.193-1.23,1.193
						c-0.258,0-0.558-0.066-0.9-0.204v1.333c0,0.072-0.036,0.106-0.108,0.106h-0.191c-0.072,0-0.107-0.034-0.107-0.106v-3.877
						c0-0.162,0.077-0.269,0.24-0.335C74.324,95.565,74.671,95.505,75.08,95.505z M75.926,96.718c0-0.559-0.3-0.839-0.895-0.839
						c-0.27,0-0.51,0.035-0.72,0.113c-0.078,0.031-0.114,0.083-0.114,0.161v2.034c0.294,0.138,0.582,0.21,0.87,0.21
						c0.57,0,0.858-0.282,0.858-0.839V96.718z"/>
					<path fill="#FFFFFF" d="M77.329,96.61c0-0.342,0.12-0.612,0.354-0.812c0.233-0.196,0.552-0.294,0.959-0.294
						c0.415,0,0.739,0.098,0.973,0.294c0.234,0.199,0.354,0.47,0.354,0.812v1.056c0,0.343-0.12,0.613-0.354,0.804
						c-0.233,0.198-0.558,0.294-0.973,0.294c-0.407,0-0.726-0.096-0.959-0.294c-0.234-0.198-0.354-0.461-0.354-0.804V96.61z
						 M79.562,96.61c0-0.228-0.085-0.408-0.246-0.541c-0.163-0.132-0.391-0.198-0.673-0.198c-0.281,0-0.497,0.066-0.659,0.198
						c-0.168,0.133-0.252,0.313-0.252,0.541v1.056c0,0.228,0.084,0.408,0.252,0.535c0.162,0.13,0.384,0.196,0.659,0.196
						c0.282,0,0.51-0.066,0.673-0.196c0.161-0.127,0.246-0.308,0.246-0.535V96.61z"/>
					<path fill="#FFFFFF" d="M82.548,95.505c0.072,0,0.108,0.037,0.108,0.109v0.155c0,0.072-0.036,0.109-0.108,0.109h-0.197
						c-0.3,0-0.564,0.041-0.792,0.125c-0.066,0.031-0.103,0.077-0.103,0.155v2.414c0,0.071-0.036,0.106-0.107,0.106h-0.192
						c-0.071,0-0.107-0.035-0.107-0.106v-2.544c0-0.164,0.077-0.271,0.228-0.337c0.307-0.115,0.667-0.182,1.086-0.188H82.548z"/>
					<path fill="#FFFFFF" d="M84.12,94.877c0.072,0,0.107,0.035,0.107,0.106v0.613h0.87c0.072,0,0.108,0.035,0.108,0.107v0.155
						c0,0.072-0.036,0.109-0.108,0.109h-0.87v1.559c0,0.349,0.061,0.582,0.187,0.697c0.114,0.101,0.337,0.155,0.672,0.155
						c0.072,0,0.108,0.035,0.108,0.115v0.161c0,0.072-0.036,0.107-0.108,0.107c-0.468,0.006-0.792-0.072-0.978-0.245
						c-0.186-0.174-0.282-0.504-0.282-0.979v-1.57h-0.569c-0.072,0-0.108-0.037-0.108-0.109v-0.155c0-0.072,0.036-0.107,0.108-0.107
						h0.569v-0.613c0-0.071,0.036-0.106,0.107-0.106H84.12z"/>
					<path fill="#FFFFFF" d="M87.204,95.505c0.798,0,1.2,0.397,1.2,1.189v1.571c0,0.169-0.072,0.282-0.217,0.342
						c-0.239,0.104-0.569,0.156-0.995,0.156c-0.498,0-0.84-0.078-1.038-0.239c-0.175-0.139-0.258-0.372-0.258-0.691
						c0-0.341,0.102-0.582,0.305-0.724c0.199-0.139,0.541-0.205,1.016-0.205c0.161,0,0.425,0.018,0.785,0.061v-0.276
						c0-0.547-0.27-0.823-0.81-0.823c-0.396,0-0.679,0.145-0.84,0.438c-0.042,0.06-0.097,0.079-0.151,0.048l-0.143-0.06
						c-0.079-0.029-0.097-0.078-0.061-0.156C86.22,95.716,86.622,95.505,87.204,95.505z M88.002,97.294
						c-0.36-0.035-0.636-0.055-0.828-0.055c-0.318,0-0.54,0.049-0.672,0.139c-0.126,0.089-0.191,0.239-0.191,0.449
						c0,0.204,0.054,0.354,0.161,0.444c0.126,0.103,0.36,0.157,0.69,0.157c0.306,0,0.546-0.031,0.726-0.098
						c0.078-0.029,0.114-0.089,0.114-0.173V97.294z"/>
					<path fill="#FFFFFF" d="M90.114,94.877c0.071,0,0.107,0.035,0.107,0.106v0.613h0.87c0.072,0,0.108,0.035,0.108,0.107v0.155
						c0,0.072-0.036,0.109-0.108,0.109h-0.87v1.559c0,0.349,0.06,0.582,0.187,0.697c0.113,0.101,0.335,0.155,0.672,0.155
						c0.072,0,0.107,0.035,0.107,0.115v0.161c0,0.072-0.035,0.107-0.107,0.107c-0.468,0.006-0.792-0.072-0.978-0.245
						c-0.188-0.174-0.282-0.504-0.282-0.979v-1.57h-0.57c-0.072,0-0.108-0.037-0.108-0.109v-0.155c0-0.072,0.036-0.107,0.108-0.107
						h0.57v-0.613c0-0.071,0.035-0.106,0.107-0.106H90.114z"/>
					<path fill="#FFFFFF" d="M92.285,94.491c0.149,0,0.222,0.072,0.222,0.224v0.041c0,0.15-0.072,0.222-0.222,0.222h-0.036
						c-0.149,0-0.222-0.071-0.222-0.222v-0.041c0-0.151,0.072-0.224,0.222-0.224H92.285z M92.364,95.597
						c0.07,0,0.107,0.035,0.107,0.107v2.869c0,0.071-0.037,0.106-0.107,0.106h-0.193c-0.071,0-0.107-0.035-0.107-0.106v-2.869
						c0-0.072,0.036-0.107,0.107-0.107H92.364z"/>
					<path fill="#FFFFFF" d="M93.569,96.61c0-0.342,0.12-0.612,0.354-0.812c0.234-0.196,0.552-0.294,0.961-0.294
						c0.413,0,0.737,0.098,0.971,0.294c0.234,0.199,0.354,0.47,0.354,0.812v1.056c0,0.343-0.12,0.613-0.354,0.804
						c-0.233,0.198-0.558,0.294-0.971,0.294c-0.409,0-0.727-0.096-0.961-0.294c-0.233-0.198-0.354-0.461-0.354-0.804V96.61z
						 M95.801,96.61c0-0.228-0.083-0.408-0.246-0.541c-0.161-0.132-0.39-0.198-0.671-0.198c-0.282,0-0.499,0.066-0.66,0.198
						c-0.168,0.133-0.252,0.313-0.252,0.541v1.056c0,0.228,0.084,0.408,0.252,0.535c0.161,0.13,0.384,0.196,0.66,0.196
						c0.281,0,0.51-0.066,0.671-0.196c0.163-0.127,0.246-0.308,0.246-0.535V96.61z"/>
					<path fill="#FFFFFF" d="M98.633,95.505c0.797,0,1.194,0.392,1.194,1.178v1.891c0,0.071-0.036,0.106-0.109,0.106h-0.186
						c-0.072,0-0.107-0.035-0.107-0.106v-1.879c0-0.547-0.282-0.815-0.841-0.815c-0.281,0-0.552,0.041-0.798,0.131
						c-0.059,0.031-0.089,0.077-0.089,0.149v2.414c0,0.071-0.036,0.106-0.108,0.106h-0.191c-0.072,0-0.108-0.035-0.108-0.106v-2.532
						c0-0.156,0.078-0.266,0.228-0.331C97.847,95.571,98.219,95.505,98.633,95.505z"/>
				</g>
			</g>
		</g>
		<g>
			<path fill="#FFFFFF" d="M6.408,74.671c2.131,0,3.786,0.543,4.965,1.632c1.157,1.066,1.724,2.563,1.724,4.467v3.9
				c0,1.905-0.566,3.402-1.724,4.467c-1.179,1.088-2.834,1.633-4.965,1.633H1.102c-0.611,0-0.929-0.317-0.929-0.93V75.6
				c0-0.611,0.317-0.929,0.929-0.929H6.408z M9.424,80.77c0-1.836-1.021-2.743-3.038-2.743H3.868v9.364h2.518
				c2.018,0,3.038-0.907,3.038-2.721V80.77z"/>
			<path fill="#FFFFFF" d="M29.83,89.862c0.228,0.611,0.023,0.907-0.611,0.907h-1.701c-0.952,0-1.52-0.272-1.678-0.839L25.138,87.8
				h-5.602l-0.726,2.131c-0.113,0.341-0.272,0.543-0.476,0.658c-0.227,0.112-0.612,0.181-1.18,0.181h-1.564
				c-0.635,0-0.839-0.296-0.612-0.907l5.419-14.42c0.182-0.521,0.567-0.771,1.134-0.771h1.746c0.59,0,0.976,0.25,1.134,0.725
				L29.83,89.862z M23.006,81.291c-0.341-1.088-0.544-2.176-0.567-3.243h-0.227c0.022,1.067-0.159,2.155-0.521,3.222l-1.18,3.536
				h3.674L23.006,81.291z"/>
			<path fill="#FFFFFF" d="M44.727,74.671c0.612,0,0.907,0.317,0.907,0.929v14.24c0,0.612-0.295,0.93-0.907,0.93H42.89
				c-0.431,0-0.726-0.136-0.906-0.432l-4.444-6.756c-0.794-1.18-1.429-2.585-1.905-4.241h-0.158c0.431,2.042,0.635,3.743,0.635,5.08
				v5.419c0,0.612-0.317,0.93-0.93,0.93h-1.678c-0.612,0-0.93-0.317-0.93-0.93V75.6c0-0.611,0.317-0.929,0.93-0.929h1.882
				c0.386,0,0.68,0.137,0.885,0.431l4.534,6.87c0.431,0.658,1.066,1.995,1.859,4.059h0.182c-0.477-1.497-0.726-3.175-0.726-5.012
				V75.6c0-0.611,0.317-0.929,0.93-0.929H44.727z"/>
			<path fill="#FFFFFF" d="M67.648,89.862c0.228,0.611,0.022,0.907-0.611,0.907h-1.7c-0.953,0-1.52-0.272-1.679-0.839L62.955,87.8
				h-5.601l-0.726,2.131c-0.113,0.341-0.272,0.543-0.476,0.658c-0.227,0.112-0.613,0.181-1.18,0.181h-1.564
				c-0.635,0-0.839-0.296-0.612-0.907l5.42-14.42c0.181-0.521,0.566-0.771,1.134-0.771h1.746c0.589,0,0.975,0.25,1.134,0.725
				L67.648,89.862z M60.824,81.291c-0.34-1.088-0.545-2.176-0.566-3.243H60.03c0.022,1.067-0.159,2.155-0.521,3.222l-1.18,3.536
				h3.674L60.824,81.291z"/>
			<path fill="#FFFFFF" d="M82.549,74.671c0.612,0,0.907,0.317,0.907,0.929v14.24c0,0.612-0.295,0.93-0.907,0.93h-1.837
				c-0.431,0-0.725-0.136-0.907-0.432l-4.443-6.756c-0.794-1.18-1.429-2.585-1.905-4.241h-0.159c0.432,2.042,0.636,3.743,0.636,5.08
				v5.419c0,0.612-0.317,0.93-0.93,0.93h-1.678c-0.613,0-0.93-0.317-0.93-0.93V75.6c0-0.611,0.316-0.929,0.93-0.929h1.882
				c0.385,0,0.68,0.137,0.884,0.431l4.535,6.87c0.432,0.658,1.066,1.995,1.859,4.059h0.182c-0.477-1.497-0.726-3.175-0.726-5.012
				V75.6c0-0.611,0.317-0.929,0.929-0.929H82.549z"/>
			<path fill="#FFFFFF" d="M98.92,74.671c0.612,0,0.907,0.317,0.907,0.929v14.24c0,0.612-0.295,0.93-0.907,0.93h-1.837
				c-0.612,0-0.93-0.317-0.93-0.93v-5.532h-5.464v5.532c0,0.612-0.317,0.93-0.93,0.93h-1.837c-0.612,0-0.93-0.317-0.93-0.93V75.6
				c0-0.611,0.317-0.929,0.93-0.929h1.837c0.612,0,0.93,0.317,0.93,0.929v5.329h5.464V75.6c0-0.611,0.317-0.929,0.93-0.929H98.92z"
				/>
		</g>
	</g>
</g>
</svg>
