<?xml version="1.0" encoding="utf-8"?>
<!-- Generator: Adobe Illustrator 16.0.0, SVG Export Plug-In . SVG Version: 6.00 Build 0)  -->
<!DOCTYPE svg PUBLIC "-//W3C//DTD SVG 1.1//EN" "http://www.w3.org/Graphics/SVG/1.1/DTD/svg11.dtd">
<svg version="1.1" id="Layer_1" xmlns="http://www.w3.org/2000/svg" xmlns:xlink="http://www.w3.org/1999/xlink" x="0px" y="0px"
	 width="100px" height="100px" viewBox="0 0 100 100" enable-background="new 0 0 100 100" xml:space="preserve">
<path fill-rule="evenodd" clip-rule="evenodd" fill="#E8BB25" d="M49.831,99.999C24.242,100.085,1,80.176,0.027,51.321
	C-0.883,24.295,20.85-0.013,50.148,0C75.923,0.01,98.627,19.711,99.944,47.854C101.274,76.28,78.367,100.145,49.831,99.999z
	 M52.094,24.038c3.027,0.29,4.253-1.065,4.566-3.909c0.154-1.395,0.924-2.926-0.483-3.678c-1.019-0.544-2.622-0.421-3.826-0.089
	c-1.933,0.533-3.548,2.142-5.881,1.282c-0.449-0.166-1.545,0.727-1.993,1.375c-1.889,2.728-3.012,3.196-5.879,2.014
	c-0.469-0.193-0.801-0.717-1.197-1.088c0.451-0.321,0.861-0.752,1.362-0.945c1.907-0.733,4.031-1.086,5.725-2.143
	c2.706-1.688,5.133-3.823,7.797-5.861c-4.028-2.788-6.605-2.183-11.858,4.037c-1.582,0.191-2.427,0.289-3.271,0.397
	c-0.481,0.061-1.32,0.318-1.385,0.186c-0.996-2.033-2.175-0.69-3.374-0.325c-0.533,0.162-1.2-0.135-1.809-0.199
	c-0.821-0.087-1.776-0.453-2.444-0.166c-1.812,0.783-3.524,1.812-5.236,2.812c-1.441,0.842-2.052,2.029-2.053,3.835
	c-0.001,1.662-0.553,3.385-1.158,4.967c-0.643,1.68-1.586,3.253-2.483,4.825c-1.371,2.4-0.903,4.279,1.031,6.264
	c1.114,1.142,1.558,2.947,2.27,4.47c0.543,1.162,0.732,2.694,1.606,3.454c2.109,1.836,4.476,3.399,6.843,4.909
	c1.22,0.779,2.66,1.21,4,1.797c0.119-0.198,0.237-0.397,0.355-0.597c-0.682-0.75-1.417-1.458-2.035-2.258
	c-1.452-1.877-3.148-3.646-4.193-5.735c-1.366-2.732-0.498-4.245,2.414-5.406c2.54-1.013,4.067-0.247,5.23,2.478
	c0.345,0.808,0.989,1.488,1.187,1.777c2.705-4.033,5.076-7.884,7.8-11.465c0.955-1.255,2.782-2.6,4.202-2.591
	C51.122,28.481,52.406,27.274,52.094,24.038z M44.944,46.873c-3.004,1.088-5.419,1.82-6.625,4.23
	c-0.497,0.993,0.151,2.65-0.446,3.487c-2.253,3.155-2.335,6.21-0.354,9.435c0.041,0.068,0.028,0.171,0.035,0.258
	c0.225,2.843,1.951,4.583,4.416,5.547c2.702,1.058,3.188,3.039,3.495,5.693c0.447,3.854-0.441,8.004,1.989,11.512
	c0.391,0.564,0.96,1.004,1.447,1.501c0.453-0.569,1.043-1.081,1.319-1.727c0.262-0.608-0.022-1.504,0.319-2.015
	c0.514-0.768,1.43-1.907,2.061-1.838c2.213,0.24,3.462-0.443,5.048-2.163c3.455-3.744,7.791-6.573,10.245-11.359
	c2.087-4.071,1.489-6.738-2.735-8.359c-0.887-0.342-1.836-0.595-2.624-1.098c-0.897-0.572-1.85-1.244-2.417-2.109
	c-1.072-1.636-2.119-2.839-4.377-2.474c-0.692,0.111-1.503-0.944-2.34-1.196c-1.374-0.411-2.809-0.637-4.229-0.877
	c-0.981-0.166-2.103,0.021-2.942-0.395c-1.051-0.519-1.879-1.493-2.589-2.091C44.098,49.441,44.402,48.519,44.944,46.873z
	 M89.955,51.411c0.997,0.38,1.995,0.76,2.992,1.141c0.213-0.94,0.687-1.909,0.592-2.817c-0.388-3.69-0.843-7.382-1.503-11.032
	c-0.256-1.413-0.674-3.391-2.958-2.577c-3.25,1.158-3.801,2.152-2.962,4.583c0.128,0.372,0.199,0.843,0.089,1.204
	c-0.427,1.396-1.05,2.74-1.395,4.152C83.87,49.91,86.104,51.949,89.955,51.411z M76.514,19.193c0.783,1.92,1.358,4.132,2.544,5.944
	c0.734,1.12,0.752,3.88,3.075,2.796c0.67-0.312,0.407-2.63,0.613-4.378c0.134-0.063,0.787-0.372,1.669-0.79
	c-1.534-1.684-2.917-3.2-3.785-4.153C78.972,18.846,77.921,18.994,76.514,19.193z"/>
</svg>
