<?xml version="1.0" encoding="utf-8"?>
<!-- Generator: Adobe Illustrator 16.0.0, SVG Export Plug-In . SVG Version: 6.00 Build 0)  -->
<!DOCTYPE svg PUBLIC "-//W3C//DTD SVG 1.1//EN" "http://www.w3.org/Graphics/SVG/1.1/DTD/svg11.dtd">
<svg version="1.1" id="Layer_1" xmlns="http://www.w3.org/2000/svg" xmlns:xlink="http://www.w3.org/1999/xlink" x="0px" y="0px"
	 width="100px" height="100px" viewBox="0 0 100 100" enable-background="new 0 0 100 100" xml:space="preserve">
<path fill-rule="evenodd" clip-rule="evenodd" fill="#E8BB25" d="M0,49.945C-0.008,22.343,22.461-0.046,50.076,0
	C77.675,0.047,100,22.467,99.999,50.005c-0.001,27.656-22.56,50.22-50.431,49.993C22.232,99.778-0.059,77.517,0,49.945z
	 M70.113,64.527c-0.002,0-0.006,0-0.008,0c0-4.02,0.033-8.041-0.037-12.06c-0.009-0.578-0.36-1.32-0.801-1.695
	c-6.171-5.257-12.391-10.458-18.582-15.691c-0.504-0.425-0.834-0.454-1.355-0.013c-6.191,5.234-12.4,10.45-18.615,15.654
	c-0.593,0.497-0.856,1.034-0.854,1.825c0.029,8.005,0.035,16.01,0.008,24.014c-0.004,0.945,0.318,1.247,1.235,1.233
	c2.703-0.039,5.408-0.059,8.11,0.009c1.066,0.026,1.296-0.366,1.288-1.359c-0.042-5.514-0.024-11.028-0.019-16.542
	c0.004-2.154,0.71-2.872,2.881-2.88c4.34-0.015,8.68-0.001,13.021-0.007c2.436-0.004,3.122,0.664,3.122,3.071
	c0,5.515,0.02,11.029-0.016,16.543c-0.006,0.888,0.265,1.181,1.147,1.167c2.739-0.042,5.479-0.048,8.219,0.002
	c0.995,0.017,1.281-0.357,1.271-1.316C70.09,72.497,70.113,68.512,70.113,64.527z M59.729,29.487
	c-2.53-2.107-4.853-4.029-7.159-5.967c-1.802-1.515-3.339-1.536-5.128-0.025c-8.068,6.815-16.135,13.635-24.205,20.448
	c-1.753,1.479-2.053,3.497-0.731,5.059c1.41,1.667,3.372,1.799,5.175,0.289c5.779-4.841,11.544-9.7,17.314-14.55
	c1.652-1.389,3.31-2.773,4.953-4.151c0.309,0.222,0.521,0.354,0.709,0.512c5.99,5.032,11.978,10.066,17.967,15.1
	c1.252,1.053,2.502,2.108,3.757,3.155c1.688,1.408,3.735,1.274,5.095-0.328c1.278-1.508,1.075-3.628-0.548-5.026
	c-3.153-2.714-6.323-5.41-9.519-8.075c-0.522-0.436-0.724-0.866-0.713-1.533c0.038-2.312,0.05-4.625,0.007-6.938
	c-0.044-2.194-1.547-3.626-3.656-3.583c-2,0.042-3.302,1.469-3.317,3.639C59.725,28.076,59.729,28.638,59.729,29.487z
	 M44.797,69.515c0,2.417,0.023,4.834-0.014,7.25c-0.011,0.745,0.266,1.016,0.985,1.011c2.809-0.018,5.616-0.018,8.423-0.004
	c0.632,0.003,0.902-0.254,0.902-0.885c-0.005-4.904,0-9.809,0.01-14.714c0.002-0.656-0.239-0.945-0.948-0.937
	c-2.771,0.03-5.544,0.042-8.316-0.007c-0.893-0.016-1.067,0.357-1.055,1.141C44.821,64.751,44.798,67.133,44.797,69.515z"/>
</svg>
