<?xml version="1.0" encoding="utf-8"?>
<!-- Generator: Adobe Illustrator 16.0.0, SVG Export Plug-In . SVG Version: 6.00 Build 0)  -->
<!DOCTYPE svg PUBLIC "-//W3C//DTD SVG 1.1//EN" "http://www.w3.org/Graphics/SVG/1.1/DTD/svg11.dtd">
<svg version="1.1" id="Layer_1" xmlns="http://www.w3.org/2000/svg" xmlns:xlink="http://www.w3.org/1999/xlink" x="0px" y="0px"
	 width="100px" height="100px" viewBox="0 0 100 100" enable-background="new 0 0 100 100" xml:space="preserve">
<path fill-rule="evenodd" clip-rule="evenodd" fill="#E8BB25" d="M0.006,49.302C0.433,21.153,23.477-0.656,51.233,0.015
	c27.642,0.668,49.509,23.707,48.747,51.172c-0.771,27.776-23.524,49.277-51.035,48.805C21.099,99.262-0.409,76.615,0.006,49.302z
	 M21.974,46.149c4.791,8.719,10.603,16.663,18.39,22.991c4.725,3.838,9.792,7.171,15.323,9.748c2.766,1.289,5.683,2.188,8.739,2.317
	c6.115,0.259,11.369-1.65,15.227-6.613c2.068-2.661,2.043-5.659,0.845-8.619c-0.326-0.809-1.302-1.592-2.156-1.909
	c-4.273-1.587-8.597-3.045-12.924-4.485c-1.604-0.534-2.945,0.197-4.087,1.27c-1.215,1.143-2.373,2.346-3.551,3.528
	c-1.066,1.069-1.767,1.179-3.13,0.494c-7.51-3.776-13.314-9.38-17.702-16.502c-0.612-0.994-1.219-1.99-1.797-3.004
	c-0.746-1.308-0.627-2.08,0.424-3.129c1.134-1.132,2.27-2.261,3.397-3.399c1.469-1.482,1.947-3.129,1.184-5.188
	c-1.272-3.433-2.395-6.92-3.584-10.384c-1.302-3.789-3.597-5.107-7.599-4.474c-2.546,0.403-4.352,1.937-5.965,3.753
	c-2.998,3.377-4.164,7.442-4.305,11.797C18.817,38.597,19.983,42.524,21.974,46.149z"/>
</svg>
