<?xml version="1.0" encoding="UTF-8"?>
<svg width="112px" height="95px" viewBox="0 0 112 95" version="1.1" xmlns="http://www.w3.org/2000/svg" xmlns:xlink="http://www.w3.org/1999/xlink">
    <!-- Generator: sketchtool 51.3 (57544) - http://www.bohemiancoding.com/sketch -->
    <title>C529F0C7-1F29-46ED-8CB0-99F2714D81DA</title>
    <desc>Created with sketchtool.</desc>
    <defs>
        <polygon id="path-1" points="0.128882 0.115064935 8.35692 0.115064935 8.35692 13.4449351 0.128882 13.4449351"></polygon>
        <polygon id="path-3" points="0.254358 0.0615584416 72.062718 0.0615584416 72.062718 69.5924416 0.254358 69.5924416"></polygon>
        <polygon id="path-5" points="0 79.9384416 84.27692 79.9384416 84.27692 0.25974026 0 0.25974026"></polygon>
        <path d="M32,5.33333333 C17.28,5.33333333 5.33333333,17.28 5.33333333,32 C5.33333333,46.72 17.28,58.6666667 32,58.6666667 C46.72,58.6666667 58.6666667,46.72 58.6666667,32 C58.6666667,17.28 46.72,5.33333333 32,5.33333333 Z M24.7733333,43.44 L15.2,33.8666667 C14.7006595,33.3684493 14.4200384,32.692047 14.4200384,31.9866667 C14.4200384,31.2812863 14.7006595,30.6048841 15.2,30.1066667 C16.24,29.0666667 17.92,29.0666667 18.96,30.1066667 L26.6666667,37.7866667 L45.0133333,19.44 C46.0533333,18.4 47.7333333,18.4 48.7733333,19.44 C49.8133333,20.48 49.8133333,22.16 48.7733333,23.2 L28.5333333,43.44 C27.52,44.48 25.8133333,44.48 24.7733333,43.44 Z" id="path-7"></path>
    </defs>
    <g id="Sàn-vé" stroke="none" stroke-width="1" fill="none" fill-rule="evenodd">
        <g id="03-payment-bank-transfer" transform="translate(-339.000000, -149.000000)">
            <g id="Group-2" transform="translate(339.000000, 144.000000)">
                <g id="Group-60" transform="translate(0.000000, 20.000000)">
                    <g id="Group-3" transform="translate(75.920000, 10.847532)">
                        <mask id="mask-2" fill="white">
                            <use xlink:href="#path-1"></use>
                        </mask>
                        <g id="Clip-2"></g>
                        <path d="M1.147562,0.115064935 L6.218082,0.115064935 C7.399262,0.115064935 8.357102,1.07168831 8.357102,2.25194805 L8.357102,13.4449351 C6.057142,13.4449351 4.192682,11.5823377 4.192682,9.28467532 L4.192682,2.6438961 L0.128882,2.6438961 L1.147562,0.115064935 Z" id="Fill-1" fill="#262626" mask="url(#mask-2)"></path>
                    </g>
                    <path d="M7.209566,10.9625974 L2.139046,10.9625974 C0.957606,10.9625974 2.6e-05,11.9192208 2.6e-05,13.0994805 L2.6e-05,24.2924675 C2.299986,24.2924675 4.164446,22.4298701 4.164446,20.1322078 L4.164446,13.4914286 L8.228246,13.4914286 L7.209566,10.9625974 Z" id="Fill-4" fill="#262626"></path>
                    <g id="Group-8" transform="translate(5.980000, 0.198182)">
                        <mask id="mask-4" fill="white">
                            <use xlink:href="#path-3"></use>
                        </mask>
                        <g id="Clip-7"></g>
                        <path d="M68.967938,0.0615324675 L54.468258,0.0615324675 L17.848558,0.0615324675 L3.348878,0.0615324675 C1.639898,0.0615324675 0.254358,1.44568831 0.254358,3.15296104 L0.254358,66.501013 C0.254358,68.2082857 1.639898,69.5924416 3.348878,69.5924416 L17.848558,69.5924416 L54.468258,69.5924416 L68.967938,69.5924416 C70.677178,69.5924416 72.062718,68.2082857 72.062718,66.501013 L72.062718,3.15296104 C72.062718,1.44568831 70.677178,0.0615324675 68.967938,0.0615324675" id="Fill-6" fill="#F39B13" mask="url(#mask-4)"></path>
                    </g>
                    <path d="M6.234306,49.5923636 L6.234306,66.6991169 C6.234306,68.4066494 7.619846,69.7908052 9.328826,69.7908052 L74.947886,69.7908052 C76.657126,69.7908052 78.042926,68.4066494 78.042926,66.6991169 L78.042926,49.5923636 L6.234306,49.5923636 Z" id="Fill-9" fill="#EB7B15"></path>
                    <path d="M24.767444,51.5574026 C24.386284,51.5574026 24.077404,51.865974 24.077404,52.2467532 L24.077404,65.3254545 C24.077404,65.7062338 24.386284,66.0145455 24.767444,66.0145455 C25.148604,66.0145455 25.457224,65.7062338 25.457224,65.3254545 L25.457224,52.2467532 C25.457224,51.865974 25.148604,51.5574026 24.767444,51.5574026" id="Fill-11" fill="#EB9D21"></path>
                    <path d="M27.439802,51.5574026 C27.058642,51.5574026 26.750022,51.865974 26.750022,52.2467532 L26.750022,65.3254545 C26.750022,65.7062338 27.058642,66.0145455 27.439802,66.0145455 C27.820962,66.0145455 28.129842,65.7062338 28.129842,65.3254545 L28.129842,52.2467532 C28.129842,51.865974 27.820962,51.5574026 27.439802,51.5574026" id="Fill-13" fill="#EB9D21"></path>
                    <path d="M30.11242,51.5574026 C29.73126,51.5574026 29.42238,51.865974 29.42238,52.2467532 L29.42238,65.3254545 C29.42238,65.7062338 29.73126,66.0145455 30.11242,66.0145455 C30.49358,66.0145455 30.8022,65.7062338 30.8022,65.3254545 L30.8022,52.2467532 C30.8022,51.865974 30.49358,51.5574026 30.11242,51.5574026" id="Fill-15" fill="#EB9D21"></path>
                    <path d="M32.784778,51.5574026 C32.403618,51.5574026 32.094738,51.865974 32.094738,52.2467532 L32.094738,65.3254545 C32.094738,65.7062338 32.403618,66.0145455 32.784778,66.0145455 C33.165938,66.0145455 33.474818,65.7062338 33.474818,65.3254545 L33.474818,52.2467532 C33.474818,51.865974 33.165938,51.5574026 32.784778,51.5574026" id="Fill-17" fill="#EB9D21"></path>
                    <path d="M35.457396,51.5574026 C35.076236,51.5574026 34.767356,51.865974 34.767356,52.2467532 L34.767356,65.3254545 C34.767356,65.7062338 35.076236,66.0145455 35.457396,66.0145455 C35.838296,66.0145455 36.147176,65.7062338 36.147176,65.3254545 L36.147176,52.2467532 C36.147176,51.865974 35.838296,51.5574026 35.457396,51.5574026" id="Fill-19" fill="#EB9D21"></path>
                    <path d="M38.129754,51.5574026 C37.748594,51.5574026 37.439714,51.865974 37.439714,52.2467532 L37.439714,65.3254545 C37.439714,65.7062338 37.748594,66.0145455 38.129754,66.0145455 C38.510914,66.0145455 38.819794,65.7062338 38.819794,65.3254545 L38.819794,52.2467532 C38.819794,51.865974 38.510914,51.5574026 38.129754,51.5574026" id="Fill-21" fill="#EB9D21"></path>
                    <path d="M40.802138,51.5574026 C40.421238,51.5574026 40.112358,51.865974 40.112358,52.2467532 L40.112358,65.3254545 C40.112358,65.7062338 40.421238,66.0145455 40.802138,66.0145455 C41.183298,66.0145455 41.492178,65.7062338 41.492178,65.3254545 L41.492178,52.2467532 C41.492178,51.865974 41.183298,51.5574026 40.802138,51.5574026" id="Fill-23" fill="#EB9D21"></path>
                    <path d="M43.474756,51.5574026 C43.093596,51.5574026 42.784716,51.865974 42.784716,52.2467532 L42.784716,65.3254545 C42.784716,65.7062338 43.093596,66.0145455 43.474756,66.0145455 C43.855916,66.0145455 44.164796,65.7062338 44.164796,65.3254545 L44.164796,52.2467532 C44.164796,51.865974 43.855916,51.5574026 43.474756,51.5574026" id="Fill-25" fill="#EB9D21"></path>
                    <path d="M46.147114,51.5574026 C45.765954,51.5574026 45.457334,51.865974 45.457334,52.2467532 L45.457334,65.3254545 C45.457334,65.7062338 45.765954,66.0145455 46.147114,66.0145455 C46.528274,66.0145455 46.837154,65.7062338 46.837154,65.3254545 L46.837154,52.2467532 C46.837154,51.865974 46.528274,51.5574026 46.147114,51.5574026" id="Fill-27" fill="#EB9D21"></path>
                    <path d="M48.819732,51.5574026 C48.438572,51.5574026 48.129692,51.865974 48.129692,52.2467532 L48.129692,65.3254545 C48.129692,65.7062338 48.438572,66.0145455 48.819732,66.0145455 C49.200892,66.0145455 49.509512,65.7062338 49.509512,65.3254545 L49.509512,52.2467532 C49.509512,51.865974 49.200892,51.5574026 48.819732,51.5574026" id="Fill-29" fill="#EB9D21"></path>
                    <path d="M51.49209,51.5574026 C51.11119,51.5574026 50.80231,51.865974 50.80231,52.2467532 L50.80231,65.3254545 C50.80231,65.7062338 51.11119,66.0145455 51.49209,66.0145455 C51.87325,66.0145455 52.18213,65.7062338 52.18213,65.3254545 L52.18213,52.2467532 C52.18213,51.865974 51.87325,51.5574026 51.49209,51.5574026" id="Fill-31" fill="#EB9D21"></path>
                    <path d="M54.164708,51.5574026 C53.783548,51.5574026 53.474668,51.865974 53.474668,52.2467532 L53.474668,65.3254545 C53.474668,65.7062338 53.783548,66.0145455 54.164708,66.0145455 C54.545868,66.0145455 54.854748,65.7062338 54.854748,65.3254545 L54.854748,52.2467532 C54.854748,51.865974 54.545868,51.5574026 54.164708,51.5574026" id="Fill-33" fill="#EB9D21"></path>
                    <path d="M56.837066,51.5574026 C56.456166,51.5574026 56.147286,51.865974 56.147286,52.2467532 L56.147286,65.3254545 C56.147286,65.7062338 56.456166,66.0145455 56.837066,66.0145455 C57.218226,66.0145455 57.527106,65.7062338 57.527106,65.3254545 L57.527106,52.2467532 C57.527106,51.865974 57.218226,51.5574026 56.837066,51.5574026" id="Fill-35" fill="#EB9D21"></path>
                    <path d="M59.509684,51.5574026 C59.128524,51.5574026 58.819644,51.865974 58.819644,52.2467532 L58.819644,65.3254545 C58.819644,65.7062338 59.128524,66.0145455 59.509684,66.0145455 C59.890844,66.0145455 60.199724,65.7062338 60.199724,65.3254545 L60.199724,52.2467532 C60.199724,51.865974 59.890844,51.5574026 59.509684,51.5574026" id="Fill-37" fill="#EB9D21"></path>
                    <path d="M6.234306,64.8594545 L6.234306,66.6991948 C6.234306,68.4064675 7.619846,69.7906234 9.328826,69.7906234 L74.947886,69.7906234 C76.657126,69.7906234 78.042926,68.4064675 78.042926,66.6991948 L78.042926,64.8594545 L6.234306,64.8594545 Z" id="Fill-39" fill="#262626"></path>
                    <path d="M72.534306,49.5923636 L12.141766,49.5923636 C10.375066,49.5923636 8.942726,48.1617143 8.942726,46.3965195 L8.942726,10.9624935 L75.733346,10.9624935 L75.733346,46.3965195 C75.733346,48.1617143 74.301006,49.5923636 72.534306,49.5923636" id="Fill-41" fill="#262626"></path>
                    <mask id="mask-6" fill="white">
                        <use xlink:href="#path-5"></use>
                    </mask>
                    <g id="Clip-44"></g>
                    <polygon id="Fill-43" fill="#3CA2B6" mask="url(#mask-6)" points="10.62776 41.8511688 74.04774 41.8511688 74.04774 12.6457143 10.62776 12.6457143"></polygon>
                    <polygon id="Fill-45" fill="#59B0C1" mask="url(#mask-6)" points="25.194 12.6458442 10.62802 24.9783117 10.62802 31.5803896 33.05484 12.6458442"></polygon>
                    <polygon id="Fill-46" fill="#59B0C1" mask="url(#mask-6)" points="65.57525 41.8514026 74.04787 34.6984156 74.04787 28.0373766 57.73183 41.8514026"></polygon>
                    <polygon id="Fill-47" fill="#59B0C1" mask="url(#mask-6)" points="64.133836 12.6458442 29.339076 41.8512987 30.866056 41.8512987 39.212056 41.8512987 74.047896 12.6458442"></polygon>
                    <polygon id="Fill-48" fill="#59B0C1" mask="url(#mask-6)" points="45.422702 12.6458442 10.627942 41.8512987 12.154922 41.8512987 17.510142 41.8512987 52.345722 12.6458442"></polygon>
                    <path d="M11.461216,61.9599481 L9.701016,61.9599481 C9.282156,61.9599481 8.942596,61.6207273 8.942596,61.2022857 L8.942596,53.1776104 C8.942596,52.7594286 9.282156,52.4199481 9.701016,52.4199481 L11.461216,52.4199481 C11.879816,52.4199481 12.219376,52.7594286 12.219376,53.1776104 L12.219376,61.2025455 C12.219376,61.6207273 11.879816,61.9599481 11.461216,61.9599481" id="Fill-49" fill="#EAE1C4" mask="url(#mask-6)"></path>
                    <path d="M74.974848,61.9599481 L73.214648,61.9599481 C72.796048,61.9599481 72.456488,61.6207273 72.456488,61.2025455 L72.456488,53.1776104 C72.456488,52.7594286 72.796048,52.4199481 73.214648,52.4199481 L74.974848,52.4199481 C75.393708,52.4199481 75.733268,52.7594286 75.733268,53.1776104 L75.733268,61.2025455 C75.733268,61.6207273 75.393708,61.9599481 74.974848,61.9599481" id="Fill-50" fill="#EAE1C4" mask="url(#mask-6)"></path>
                    <path d="M18.090202,79.9383377 L9.857042,79.9383377 C9.352122,79.9383377 8.942622,79.5295065 8.942622,79.0248312 L8.942622,69.2295065 L19.004622,69.2295065 L19.004622,79.0248312 C19.004622,79.5295065 18.595122,79.9383377 18.090202,79.9383377" id="Fill-51" fill="#262626" mask="url(#mask-6)"></path>
                    <path d="M74.818952,79.9383377 L66.585792,79.9383377 C66.080872,79.9383377 65.671112,79.5295065 65.671112,79.0248312 L65.671112,69.2295065 L75.733372,69.2295065 L75.733372,79.0248312 C75.733372,79.5295065 75.323872,79.9383377 74.818952,79.9383377" id="Fill-52" fill="#262626" mask="url(#mask-6)"></path>
                    <path d="M65.048152,8.46207792 L19.627452,8.46207792 C18.933512,8.46207792 18.370872,7.9 18.370872,7.20675325 L18.370872,4.29272727 C18.370872,3.59948052 18.933512,3.0374026 19.627452,3.0374026 L65.048152,3.0374026 C65.742352,3.0374026 66.304992,3.59948052 66.304992,4.29272727 L66.304992,7.20675325 C66.304992,7.9 65.742352,8.46207792 65.048152,8.46207792" id="Fill-53" fill="#262626" mask="url(#mask-6)"></path>
                    <path d="M15.226406,5.74979221 C15.226406,6.48719481 14.628146,7.08511688 13.889746,7.08511688 C13.151866,7.08511688 12.553606,6.48719481 12.553606,5.74979221 C12.553606,5.01238961 13.151866,4.41446753 13.889746,4.41446753 C14.628146,4.41446753 15.226406,5.01238961 15.226406,5.74979221" id="Fill-54" fill="#EAE1C4" mask="url(#mask-6)"></path>
                    <path d="M11.439636,5.74979221 C11.439636,6.48719481 10.841116,7.08511688 10.102976,7.08511688 C9.365096,7.08511688 8.766576,6.48719481 8.766576,5.74979221 C8.766576,5.01238961 9.365096,4.41446753 10.102976,4.41446753 C10.841116,4.41446753 11.439636,5.01238961 11.439636,5.74979221" id="Fill-55" fill="#EAE1C4" mask="url(#mask-6)"></path>
                    <path d="M75.510344,5.74979221 C75.510344,6.48719481 74.911824,7.08511688 74.173684,7.08511688 C73.435804,7.08511688 72.837284,6.48719481 72.837284,5.74979221 C72.837284,5.01238961 73.435804,4.41446753 74.173684,4.41446753 C74.911824,4.41446753 75.510344,5.01238961 75.510344,5.74979221" id="Fill-56" fill="#EAE1C4" mask="url(#mask-6)"></path>
                    <path d="M71.7236,5.74979221 C71.7236,6.48719481 71.12508,7.08511688 70.38694,7.08511688 C69.64906,7.08511688 69.05054,6.48719481 69.05054,5.74979221 C69.05054,5.01238961 69.64906,4.41446753 70.38694,4.41446753 C71.12508,4.41446753 71.7236,5.01238961 71.7236,5.74979221" id="Fill-57" fill="#EAE1C4" mask="url(#mask-6)"></path>
                    <polygon id="Fill-58" fill="#262626" mask="url(#mask-6)" points="41.75626 42.8802597 42.91976 42.8802597 42.91976 11.674026 41.75626 11.674026"></polygon>
                    <polygon id="Fill-59" fill="#EAE1C4" mask="url(#mask-6)" points="34.7672 67.0212987 49.50946 67.0212987 49.50946 62.6979221 34.7672 62.6979221"></polygon>
                </g>
                <g id="Group" transform="translate(53.000000, 0.000000)">
                    <circle id="Oval" fill="#FFFFFF" cx="32" cy="32" r="26"></circle>
                    <g id="icon/action/check_circle_24px">
                        <mask id="mask-8" fill="white">
                            <use xlink:href="#path-7"></use>
                        </mask>
                        <g fill-rule="nonzero"></g>
                        <g id="Color/Secondary/Green-90" mask="url(#mask-8)" fill="#00C48C" fill-rule="nonzero">
                            <rect id="Color/Secondary/Green-100" x="0" y="0" width="64" height="64"></rect>
                        </g>
                    </g>
                </g>
            </g>
        </g>
    </g>
</svg>